<!DOCTYPE svg PUBLIC "-//W3C//DTD SVG 1.1//EN" "http://www.w3.org/Graphics/SVG/1.1/DTD/svg11.dtd">
<!-- Uploaded to: SVG Repo, www.svgrepo.com, Transformed by: SVG Repo Mixer Tools -->
<svg width="64px" height="64px" viewBox="0 0 32.00 32.00" xmlns="http://www.w3.org/2000/svg" fill="#000000" stroke="#000000" stroke-width="0.128">
<g id="SVGRepo_bgCarrier" stroke-width="0"/>
<g id="SVGRepo_tracerCarrier" stroke-linecap="round" stroke-linejoin="round"/>
<g id="SVGRepo_iconCarrier"> <g fill="none" fill-rule="evenodd"> <path d="m0 0h32v32h-32z"/> <path d="m16 0c8.836556 0 16 7.163444 16 16s-7.163444 16-16 16-16-7.163444-16-16 7.163444-16 16-16zm0 2c-7.7319865 0-14 6.2680135-14 14s6.2680135 14 14 14 14-6.2680135 14-14-6.2680135-14-14-14zm4.2426407 9.7573593c.3905243.3905243.3905243 1.0236893 0 1.4142136l-2.8284271 2.8284271 2.8284271 2.8284271c.3905243.3905243.3905243 1.0236893 0 1.4142136s-1.0236893.3905243-1.4142136 0l-2.8284271-2.8284271-2.8284271 2.8284271c-.3905243.3905243-1.0236893.3905243-1.4142136 0s-.3905243-1.0236893 0-1.4142136l2.8284271-2.8284271-2.8284271-2.8284271c-.3905243-.3905243-.3905243-1.0236893 0-1.4142136s1.0236893-.3905243 1.4142136 0l2.8284271 2.8284271 2.8284271-2.8284271c.3905243-.3905243 1.0236893-.3905243 1.4142136 0z" fill="#da0b0b" fill-rule="nonzero"/> </g> </g>
</svg>