<!DOCTYPE svg PUBLIC "-//W3C//DTD SVG 1.1//EN" "http://www.w3.org/Graphics/SVG/1.1/DTD/svg11.dtd">
<!-- Uploaded to: SVG Repo, www.svgrepo.com, Transformed by: SVG Repo Mixer Tools -->
<svg version="1.1" id="Uploaded to svgrepo.com" xmlns="http://www.w3.org/2000/svg" xmlns:xlink="http://www.w3.org/1999/xlink" width="64px" height="64px" viewBox="0 0 32.00 32.00" xml:space="preserve" fill="#47c6d7" stroke="#47c6d7" stroke-width="0.544">
<g id="SVGRepo_bgCarrier" stroke-width="0"/>
<g id="SVGRepo_tracerCarrier" stroke-linecap="round" stroke-linejoin="round"/>
<g id="SVGRepo_iconCarrier"> <style type="text/css"> .hatch_een{fill:#6f8aae;} .hatch_twee{fill:#FFC5BB;} </style> <g> <path class="hatch_twee" d="M25.481,8.796l0.707,0.707l-16.62,16.62L8.86,25.416L25.481,8.796z M24.188,7.503l-0.707-0.707 L6.86,23.416l0.707,0.707L24.188,7.503z"/> <path class="hatch_een" d="M31.067,6.721c-0.05-0.121-0.123-0.233-0.217-0.327l-4.243-4.243c-0.188-0.188-0.442-0.293-0.707-0.293 c-0.265,0-0.52,0.105-0.707,0.293L4.686,22.657c-0.119,0.119-0.193,0.25-0.209,0.362c-0.019,0.032-1.469,5.76-1.469,5.76 c-0.085,0.341,0.015,0.701,0.263,0.95c0.19,0.19,0.445,0.293,0.707,0.293c0.081,0,5.899-1.444,5.899-1.444 c0.033-0.008,0.148-0.057,0.175-0.069c0.106-0.049,0.289-0.192,0.29-0.194L30.849,7.808c0.094-0.094,0.168-0.206,0.217-0.327 C31.166,7.237,31.166,6.964,31.067,6.721z M25.899,2.858L30.142,7.1l-2.471,2.471l-4.243-4.243L25.899,2.858z M3.979,29.021 l0.424-1.697l1.273,1.273L3.979,29.021z M6.808,28.314l-2.122-2.121l0.707-2.829l4.243,4.243L6.808,28.314z M10.343,26.899 l-4.243-4.243l16.62-16.62l4.243,4.243L10.343,26.899z"/> </g> </g>
</svg>